<mxfile host="app.diagrams.net" modified="2023-04-29T11:58:18.445Z" agent="Mozilla/5.0 (X11; Linux x86_64) AppleWebKit/537.36 (KHTML, like Gecko) Chrome/112.0.0.0 Safari/537.36" etag="ORAvjUUB7-eVo8ll-nBd" version="21.2.3" type="github">
  <diagram name="Page-1" id="NmDP2O0x9Dt5EljiSxz0">
    <mxGraphModel dx="1434" dy="837" grid="1" gridSize="10" guides="1" tooltips="1" connect="1" arrows="1" fold="1" page="1" pageScale="1" pageWidth="850" pageHeight="1100" math="0" shadow="0">
      <root>
        <mxCell id="0" />
        <mxCell id="1" parent="0" />
        <mxCell id="0tAkz_oHpABIeNLFzeFE-1" value="Homepage&lt;br&gt;&amp;lt; home app &amp;gt;" style="rounded=0;whiteSpace=wrap;html=1;" vertex="1" parent="1">
          <mxGeometry x="350" y="50" width="150" height="100" as="geometry" />
        </mxCell>
      </root>
    </mxGraphModel>
  </diagram>
</mxfile>
